<svg width="82" height="82" viewBox="0 0 82 82" fill="none" xmlns="http://www.w3.org/2000/svg">
<g id="Page-1">
<g id="Icon-Set">
<path id="plus-circle" fill-rule="evenodd" clip-rule="evenodd" d="M41 76.875C21.1868 76.875 5.125 60.8081 5.125 41C5.125 21.1919 21.1868 5.125 41 5.125C60.8133 5.125 76.875 21.1919 76.875 41C76.875 60.8081 60.8133 76.875 41 76.875ZM41 0C18.3552 0 0 18.3475 0 41C0 63.6525 18.3552 82 41 82C63.6448 82 82 63.6525 82 41C82 18.3475 63.6448 0 41 0ZM56.375 38.4375H43.5625V25.625C43.5625 24.2156 42.4171 23.0625 41 23.0625C39.5829 23.0625 38.4375 24.2156 38.4375 25.625V38.4375H25.625C24.2079 38.4375 23.0625 39.5906 23.0625 41C23.0625 42.4094 24.2079 43.5625 25.625 43.5625H38.4375V56.375C38.4375 57.7844 39.5829 58.9375 41 58.9375C42.4171 58.9375 43.5625 57.7844 43.5625 56.375V43.5625H56.375C57.7921 43.5625 58.9375 42.4094 58.9375 41C58.9375 39.5906 57.7921 38.4375 56.375 38.4375Z" fill="white"/>
</g>
</g>
</svg>
